# xmcd CD database file
#
# Track frame offsets:
#	150
#	6377
#	26102
#	86284
#	126786
#	173335
#
# Disc length: 3134 seconds
#
# Revision: 1
# Processed by: cddbd v1.5.2PL0 Copyright (c) Steve Scherf et al.
# Submitted via: CDex 1.51
#
DISCID=3c0c3c06
DTITLE=Anahata - Meditação para a plenitude emocional
DYEAR=1900
DGENRE=New Age
TTITLE0=Boas vindas
TTITLE1=Vamos sair do piloto automatico
TTITLE2=Meditação para tranquilizar a mente
TTITLE3=Meditação para afastar os pensamentos negativos
TTITLE4=Meditação para melhorar os relacionamentos
TTITLE5=Meditação para aprender a lidar com omomentos difíceis
EXTD=
EXTT0=
EXTT1=
EXTT2=
EXTT3=
EXTT4=
EXTT5=
PLAYORDER=
